PathFileType	4	(X/Y/Z)	/Users/itak/Documents/Research/Walk-IL/dataset/trc/00546_00009.trc
DataRate	CameraRate	NumFrames	NumMarkers	Units	OrigDataRate	OrigDataStartFrame	OrigNumFrames
100.000000	100.000000	4	53	mm	100.000000	381	508
Frame#	Time	RPSI			LPSI			L3			STRN			T10			C7			CLAV			RBAK			LBAK			LSHO			LUPA			LAEL			LAOL			LWTS			LWPS			LFRA			LIFD			LHPS			LHTS			RSHO			RUPA			RAEL			RAOL			RWTS			RWPS			RFRA			RIFD			RHTS			RHPS			RBHD			LFHD			RFHD			LBHD			LHIP			RHIP			RASI			LASI			LKNE			LTHI			LANK			LTIP			LTOE			LMT1			LMT5			LHEE			RKNE			RTHI			RANK			RTIP			RTOE			RMT1			RMT5			RHEE			
		X1	Y1	Z1	X2	Y2	Z2	X3	Y3	Z3	X4	Y4	Z4	X5	Y5	Z5	X6	Y6	Z6	X7	Y7	Z7	X8	Y8	Z8	X9	Y9	Z9	X10	Y10	Z10	X11	Y11	Z11	X12	Y12	Z12	X13	Y13	Z13	X14	Y14	Z14	X15	Y15	Z15	X16	Y16	Z16	X17	Y17	Z17	X18	Y18	Z18	X19	Y19	Z19	X20	Y20	Z20	X21	Y21	Z21	X22	Y22	Z22	X23	Y23	Z23	X24	Y24	Z24	X25	Y25	Z25	X26	Y26	Z26	X27	Y27	Z27	X28	Y28	Z28	X29	Y29	Z29	X30	Y30	Z30	X31	Y31	Z31	X32	Y32	Z32	X33	Y33	Z33	X34	Y34	Z34	X35	Y35	Z35	X36	Y36	Z36	X37	Y37	Z37	X38	Y38	Z38	X39	Y39	Z39	X40	Y40	Z40	X41	Y41	Z41	X42	Y42	Z42	X43	Y43	Z43	X44	Y44	Z44	X45	Y45	Z45	X46	Y46	Z46	X47	Y47	Z47	X48	Y48	Z48	X49	Y49	Z49	X50	Y50	Z50	X51	Y51	Z51	X52	Y52	Z52	X53	Y53	Z53	

382	3.81	1138.764892578125	1007.778137207031	393.6156616210938	1139.458740234375	1008.383239746094	260.0989990234375	1147.564208984375	1108.604614257812	327.2307739257812	1389.04150390625	1287.026733398438	324.9951171875	1145.780639648438	1233.886474609375	330.2340087890625	1206.797729492188	1504.786987304688	354.3363037109375	1374.325561523438	1398.3427734375	330.5020751953125	1134.46484375	1378.496215820312	439.5557250976562	1165.860961914062	1456.188354492188	264.4718017578125	1259.232055664062	1480.74609375	178.8389739990234	1230.708862304688	1360.642578125	94.35890197753906	1214.82470703125	1140.950927734375	62.03231811523438	1133.990356445312	1142.892944335938	123.546142578125	1276.452392578125	883.960693359375	86.37425231933594	1220.753784179688	872.1232299804688	20.05748558044434	1223.558227539062	1052.474487304688	48.75881958007812	1247.657470703125	717.3177490234375	74.78294372558594	1221.049926757812	811.4090576171875	24.50786781311035	1278.031127929688	806.3276977539062	62.1644287109375	1271.868896484375	1458.712890625	503.589599609375	1256.2509765625	1394.574096679688	570.8937377929688	1262.58056640625	1106.933227539062	617.65673828125	1207.347045898438	1084.413208007812	594.6088256835938	1422.4755859375	910.90576171875	567.8157348632812	1385.07177734375	881.8363037109375	634.7073974609375	1279.141357421875	1053.521850585938	624.8760375976562	1465.428955078125	743.2284545898438	567.3863525390625	1466.967163085938	826.390380859375	579.151123046875	1414.19482421875	812.104736328125	629.8863525390625	1293.485595703125	1679.212890625	424.33056640625	1442.985107421875	1699.588745117188	280.7044067382812	1434.137817382812	1691.799072265625	426.1712951660156	1311.078125	1685.777587890625	260.3716430664062	1280.274047851562	936.6541748046875	134.4800415039062	1255.010620117188	935.2619018554688	521.1873779296875	1346.041137695312	965.6221313476562	465.4319152832031	1353.400756835938	963.6589965820312	190.1936950683594	1451.140258789062	522.727783203125	174.6019744873047	1387.890502929688	677.809326171875	140.2650909423828	1478.005249023438	38.81301116943359	172.0503082275391	1442.861083984375	268.6943969726562	164.0440216064453	1677.500244140625	89.81927490234375	218.9584808349609	1610.384399414062	77.2008056640625	256.6242370605469	1595.431640625	55.28630828857422	154.3209381103516	1412.471923828125	38.97325897216797	227.5490417480469	1255.28125	491.2914428710938	452.6004028320312	1294.23876953125	779.4531860351562	510.7253112792969	1111.454345703125	40.89434432983398	412.0035705566406	1237.801391601562	348.2320251464844	430.4193725585938	1331.384765625	39.78771209716797	370.6900939941406	1267.335693359375	43.34909057617188	330.8907165527344	1243.7431640625	38.46625137329102	435.494384765625	1056.375366210938	38.61313629150391	355.8096923828125	
383	3.82	1145.40869140625	1006.657653808594	392.7039794921875	1146.428344726562	1007.048889160156	259.2703552246094	1154.105834960938	1107.719604492188	326.3047790527344	1395.546142578125	1286.209106445312	324.3189086914062	1152.091064453125	1232.964477539062	329.3023986816406	1213.265625	1503.893432617188	353.4362487792969	1380.8203125	1397.489624023438	329.7552490234375	1140.73388671875	1377.584838867188	438.5564880371094	1172.421752929688	1455.28125	263.5408935546875	1265.890991210938	1479.8310546875	177.9684143066406	1237.290283203125	1359.6962890625	93.61248779296875	1220.807983398438	1139.922119140625	61.72571563720703	1140.096557617188	1142.165649414062	123.3832321166992	1281.686645507812	882.7408447265625	86.54150390625	1225.915893554688	870.9776000976562	20.24322128295898	1229.281005859375	1051.401123046875	48.60585784912109	1252.280639648438	716.2754516601562	75.20769500732422	1225.908081054688	810.2581176757812	24.93294525146484	1282.866821289062	805.0112915039062	62.57829284667969	1278.136474609375	1457.747314453125	502.8128662109375	1262.466552734375	1393.485473632812	570.0099487304688	1268.886352539062	1105.7373046875	616.339111328125	1213.66796875	1083.27734375	593.16748046875	1428.545288085938	909.462158203125	566.6055908203125	1390.970092773438	880.4803466796875	633.4635009765625	1285.385131835938	1052.279296875	623.5053100585938	1471.133422851562	741.6319580078125	566.2835083007812	1472.8583984375	824.828369140625	577.9672241210938	1420.018676757812	810.5924682617188	628.6594848632812	1299.935424804688	1678.274536132812	423.6839599609375	1449.526245117188	1698.676513671875	280.1438903808594	1440.5986328125	1690.8603515625	425.6553344726562	1317.635375976562	1684.894165039062	259.7171325683594	1287.696044921875	935.5296020507812	134.0665588378906	1261.214477539062	934.7415771484375	520.83154296875	1352.53759765625	964.993896484375	465.2648010253906	1360.650512695312	962.755859375	189.9594268798828	1457.722900390625	521.6708984375	174.9992218017578	1394.666259765625	676.4243774414062	140.0202026367188	1495.98974609375	38.82737731933594	172.9014739990234	1455.119384765625	267.9296569824219	164.5323486328125	1693.69921875	94.05970001220703	222.2660522460938	1626.349853515625	80.32453155517578	259.1641540527344	1613.24169921875	57.45809555053711	156.7918853759766	1429.654418945312	37.68526458740234	227.5935516357422	1258.6611328125	490.9120483398438	452.3868103027344	1299.676147460938	778.8656616210938	510.5529479980469	1111.470581054688	41.24563980102539	411.8961791992188	1240.084228515625	347.9001770019531	430.3058471679688	1331.431518554688	39.74530029296875	370.7518920898438	1267.420532226562	43.39529037475586	330.9860534667969	1243.742919921875	38.39616775512695	435.5876159667969	1056.455810546875	39.2188606262207	355.703369140625	
384	3.83	1152.1376953125	1005.498046875	391.7203674316406	1153.507446289062	1005.651916503906	258.3838500976562	1160.746826171875	1106.757568359375	325.3037109375	1402.058227539062	1285.365356445312	323.6116943359375	1158.455932617188	1231.954467773438	328.29931640625	1219.701293945312	1502.934326171875	352.4585571289062	1387.319458007812	1396.605224609375	328.9383850097656	1146.984375	1376.616821289062	437.4593505859375	1178.975341796875	1454.304077148438	262.5195617675781	1272.55126953125	1478.850341796875	177.0173797607422	1243.914184570312	1358.669555664062	92.78572845458984	1226.93603515625	1138.805541992188	61.34122467041016	1146.315185546875	1141.311767578125	123.1299285888672	1287.235595703125	881.4966430664062	86.64710998535156	1231.3896484375	869.748291015625	20.39923477172852	1235.19482421875	1050.243286132812	48.39435958862305	1257.276489257812	715.1373291015625	75.74237823486328	1231.13037109375	809.0218505859375	25.3316764831543	1288.068359375	803.6671142578125	62.96335983276367	1284.36962890625	1456.757446289062	501.9673767089844	1268.63232421875	1392.375244140625	569.0634155273438	1275.060913085938	1104.525146484375	614.980224609375	1219.855346679688	1082.14453125	591.676513671875	1434.425903320312	907.9285278320312	565.4168090820312	1396.627807617188	879.0472412109375	632.211669921875	1291.477661132812	1051.002563476562	622.0885620117188	1476.582763671875	739.9251708984375	565.2349853515625	1478.5166015625	823.1655883789062	576.8273315429688	1425.599243164062	809.0004272460938	627.441650390625	1306.339477539062	1677.30224609375	422.9452819824219	1456.051635742188	1697.735229492188	279.5133972167969	1447.016357421875	1689.896240234375	425.0751342773438	1324.180053710938	1683.967041015625	258.9747314453125	1295.192260742188	934.346435546875	133.6126251220703	1267.561279296875	934.1969604492188	520.371337890625	1359.1435546875	964.3203735351562	465.0526123046875	1367.976806640625	961.8145751953125	189.6664123535156	1464.372680664062	520.53857421875	175.4644470214844	1401.579223632812	674.9835815429688	139.7843933105469	1512.494262695312	38.8588981628418	173.8774108886719	1466.68310546875	267.1578369140625	165.1503601074219	1708.438110351562	98.08684539794922	225.4380950927734	1640.921508789062	83.23625183105469	261.6452941894531	1629.514038085938	59.58133316040039	159.2289276123047	1445.447265625	36.43782806396484	227.8271484375	1262.184204101562	490.5185852050781	452.1183471679688	1305.225219726562	778.2315063476562	510.3344116210938	1111.491088867188	41.62855529785156	411.7862548828125	1242.46484375	347.5841979980469	430.1699523925781	1331.470092773438	39.71959686279297	370.82080078125	1267.511352539062	43.45520782470703	331.076416015625	1243.723876953125	38.32265090942383	435.671630859375	1056.536743164062	39.89491271972656	355.6089172363281	
385	3.84	1158.957763671875	1004.323059082031	390.6722717285156	1160.679321289062	1004.211181640625	257.4419555664062	1167.481689453125	1105.710815429688	324.2306518554688	1408.581909179688	1284.49609375	322.8687133789062	1164.901489257812	1230.861083984375	327.2146911621094	1226.10302734375	1501.91064453125	351.4034729003906	1393.824829101562	1395.691528320312	328.0480346679688	1153.22412109375	1375.595581054688	436.2715148925781	1185.524169921875	1453.259765625	261.4048156738281	1279.209350585938	1477.8095703125	175.9882354736328	1250.578979492188	1357.567016601562	91.88051605224609	1233.216430664062	1137.606567382812	60.875	1152.651733398438	1140.337768554688	122.7798233032227	1293.096923828125	880.227294921875	86.69106292724609	1237.1826171875	868.4406127929688	20.51470565795898	1241.310668945312	1049.005249023438	48.11752319335938	1262.633911132812	713.8974609375	76.38291168212891	1236.726440429688	807.7056274414062	25.68385696411133	1293.638305664062	802.2947387695312	63.31599807739258	1290.571899414062	1455.743408203125	501.0484313964844	1274.751342773438	1391.248168945312	568.05126953125	1281.106811523438	1103.300537109375	613.589111328125	1225.9130859375	1081.018310546875	590.1495971679688	1440.118774414062	906.3137817382812	564.246337890625	1402.053588867188	877.5394287109375	630.9468383789062	1297.422607421875	1049.704467773438	620.6419067382812	1481.781860351562	738.1233520507812	564.2193603515625	1483.946166992188	821.41162109375	575.7310180664062	1430.9404296875	807.344970703125	626.2262573242188	1312.7001953125	1676.299926757812	422.1133117675781	1462.558959960938	1696.765014648438	278.8092651367188	1453.3935546875	1688.90185546875	424.4242553710938	1330.70947265625	1683.00146484375	258.1441955566406	1302.754516601562	933.100830078125	133.1157073974609	1274.058715820312	933.6271362304688	519.8087768554688	1365.869750976562	963.6047973632812	464.7832946777344	1375.376342773438	960.8306884765625	189.31005859375	1471.09326171875	519.3344116210938	175.9964141845703	1408.606811523438	673.4924926757812	139.5821228027344	1527.475830078125	38.80372619628906	174.9723968505859	1477.546508789062	266.3279724121094	165.8916168212891	1721.744995117188	101.7056732177734	228.4629516601562	1654.10595703125	85.77063751220703	264.0581665039062	1644.234497070312	61.50036239624023	161.6200103759766	1459.80712890625	35.18633270263672	228.2469177246094	1265.845458984375	490.1181945800781	451.8177490234375	1310.896362304688	777.5549926757812	510.0564880371094	1111.520385742188	42.03383255004883	411.687255859375	1244.942749023438	347.2881469726562	430.0301208496094	1331.5009765625	39.70513534545898	370.8937683105469	1267.606689453125	43.53054046630859	331.1658325195312	1243.691162109375	38.24328994750977	435.7536010742188	1056.619018554688	40.64669418334961	355.5391540527344	
